<svg width="25" height="25" viewBox="0 0 25 25" fill="none" xmlns="http://www.w3.org/2000/svg">
<path d="M20.75 5.54581H17V4.79581C17 4.19908 16.7629 3.62678 16.341 3.20482C15.919 2.78287 15.3467 2.54581 14.75 2.54581H10.25C9.65326 2.54581 9.08097 2.78287 8.65901 3.20482C8.23705 3.62678 8 4.19908 8 4.79581V5.54581H4.25C3.85218 5.54581 3.47064 5.70385 3.18934 5.98515C2.90804 6.26646 2.75 6.64799 2.75 7.04581V19.0458C2.75 19.4436 2.90804 19.8252 3.18934 20.1065C3.47064 20.3878 3.85218 20.5458 4.25 20.5458H20.75C21.1478 20.5458 21.5294 20.3878 21.8107 20.1065C22.092 19.8252 22.25 19.4436 22.25 19.0458V7.04581C22.25 6.64799 22.092 6.26646 21.8107 5.98515C21.5294 5.70385 21.1478 5.54581 20.75 5.54581ZM9.5 7.04581H15.5V19.0458H9.5V7.04581ZM9.5 4.79581C9.5 4.5969 9.57902 4.40614 9.71967 4.26548C9.86032 4.12483 10.0511 4.04581 10.25 4.04581H14.75C14.9489 4.04581 15.1397 4.12483 15.2803 4.26548C15.421 4.40614 15.5 4.5969 15.5 4.79581V5.54581H9.5V4.79581Z" fill="#6E6E9B"/>
</svg>
