<svg width="25" height="25" viewBox="0 0 25 25" fill="none" xmlns="http://www.w3.org/2000/svg">
<path d="M18.7295 2.77525L6.32976 2.73093C5.93202 2.72974 5.55009 2.88658 5.26796 3.16694C4.98583 3.4473 4.8266 3.82824 4.82529 4.22598L4.77635 20.3133C4.7758 20.5103 4.81409 20.7056 4.88904 20.8879C4.96398 21.0701 5.07411 21.2358 5.21312 21.3755C5.35214 21.5152 5.51731 21.6261 5.69921 21.702C5.88112 21.7778 6.07618 21.817 6.27325 21.8174L18.673 21.8617C18.8702 21.8624 19.0655 21.8242 19.2479 21.7493C19.4303 21.6744 19.5961 21.5643 19.7359 21.4252C19.8757 21.2862 19.9867 21.121 20.0626 20.939C20.1385 20.757 20.1777 20.5618 20.1781 20.3647L20.227 4.27739C20.2276 3.87963 20.0702 3.49792 19.7893 3.21623C19.5085 2.93453 19.1273 2.77591 18.7295 2.77525ZM18.6763 20.3618L6.27556 20.3176L6.32451 4.23031L18.7243 4.27463L18.6763 20.3618ZM7.81718 6.48585C7.81806 6.28702 7.89786 6.09667 8.03903 5.95665C8.1802 5.81664 8.3712 5.73841 8.57004 5.73917L16.4715 5.76682C16.6593 5.76723 16.84 5.83805 16.9781 5.96527C17.1162 6.0925 17.2015 6.26688 17.2172 6.45396C17.233 6.64105 17.1779 6.82723 17.0631 6.97573C16.9482 7.12423 16.7818 7.22424 16.5968 7.256C16.5534 7.26344 16.5095 7.26721 16.4655 7.26728L8.56386 7.23871C8.36503 7.23783 8.17468 7.15803 8.03467 7.01686C7.89465 6.87568 7.81642 6.68468 7.81718 6.48585ZM7.80885 9.48614C7.80916 9.38762 7.82888 9.29013 7.86688 9.19923C7.90488 9.10834 7.96042 9.02582 8.03032 8.9564C8.10022 8.88697 8.18311 8.832 8.27426 8.79462C8.36541 8.75723 8.46303 8.73817 8.56154 8.73853L16.4632 8.7671C16.652 8.76606 16.8343 8.83628 16.9736 8.96374C17.1129 9.09119 17.199 9.2665 17.2147 9.45466C17.2304 9.64283 17.1746 9.82999 17.0583 9.97879C16.9421 10.1276 16.774 10.2271 16.5877 10.2574C16.544 10.265 16.4997 10.2685 16.4553 10.2679L8.55384 10.2402C8.35509 10.2389 8.16499 10.1587 8.0253 10.0174C7.88561 9.87595 7.80776 9.68489 7.80885 9.48614ZM7.79943 12.4857C7.80104 12.2872 7.88123 12.0975 8.02243 11.9581C8.16363 11.8186 8.35433 11.7409 8.55277 11.7417L12.5011 11.7527C12.6888 11.7531 12.8695 11.8238 13.0075 11.951C13.1456 12.0781 13.2309 12.2523 13.2468 12.4393C13.2626 12.6263 13.2078 12.8125 13.0931 12.961C12.9784 13.1096 12.8122 13.2097 12.6273 13.2417C12.5839 13.2492 12.54 13.2529 12.496 13.253L8.54519 13.2387C8.34649 13.2375 8.15636 13.1576 8.01654 13.0164C7.87671 12.8753 7.79863 12.6844 7.79943 12.4857Z" fill="#6E6E9B"/>
</svg>
