<svg width="25" height="25" viewBox="0 0 25 25" fill="none" xmlns="http://www.w3.org/2000/svg">
<path d="M21.0153 10.0243L13.5153 2.948C13.5116 2.9448 13.5082 2.94136 13.505 2.93769C13.2289 2.68656 12.869 2.54741 12.4958 2.54741C12.1225 2.54741 11.7627 2.68656 11.4866 2.93769L11.4763 2.948L3.98469 10.0243C3.83187 10.1648 3.70989 10.3355 3.62646 10.5256C3.54303 10.7157 3.49997 10.921 3.5 11.1286V19.7958C3.5 20.1936 3.65804 20.5752 3.93934 20.8565C4.22064 21.1378 4.60218 21.2958 5 21.2958H9.5C9.89782 21.2958 10.2794 21.1378 10.5607 20.8565C10.842 20.5752 11 20.1936 11 19.7958V15.2958H14V19.7958C14 20.1936 14.158 20.5752 14.4393 20.8565C14.7206 21.1378 15.1022 21.2958 15.5 21.2958H20C20.3978 21.2958 20.7794 21.1378 21.0607 20.8565C21.342 20.5752 21.5 20.1936 21.5 19.7958V11.1286C21.5 10.921 21.457 10.7157 21.3735 10.5256C21.2901 10.3355 21.1681 10.1648 21.0153 10.0243ZM20 19.7958H15.5V15.2958C15.5 14.898 15.342 14.5165 15.0607 14.2352C14.7794 13.9539 14.3978 13.7958 14 13.7958H11C10.6022 13.7958 10.2206 13.9539 9.93934 14.2352C9.65804 14.5165 9.5 14.898 9.5 15.2958V19.7958H5V11.1286L5.01031 11.1193L12.5 4.04581L19.9906 11.1174L20.0009 11.1268L20 19.7958Z" fill="#6E6E9B"/>
</svg>
