<svg width="151" height="49" viewBox="0 0 151 49" fill="none" xmlns="http://www.w3.org/2000/svg">
<path fill-rule="evenodd" clip-rule="evenodd" d="M16.1972 12.1479C16.1972 10.537 16.8371 8.99204 17.9762 7.85296C19.1153 6.71387 20.6602 6.07394 22.2711 6.07394H26.3204C27.9314 6.07394 29.4763 6.71387 30.6154 7.85296C31.7545 8.99204 32.3944 10.537 32.3944 12.1479V42.5177H16.1972V12.1479ZM12.1479 14.1725H10.1232C8.51232 14.1725 6.96739 14.8125 5.8283 15.9516C4.68921 17.0906 4.04928 18.6356 4.04928 20.2465V36.4437C4.04928 38.0546 4.68921 39.5996 5.8283 40.7386C6.96739 41.8777 8.51232 42.5177 10.1232 42.5177H12.1479V14.1725ZM36.4437 42.5177H38.4683C40.0793 42.5177 41.6242 41.8777 42.7633 40.7386C43.9024 39.5996 44.5423 38.0546 44.5423 36.4437V20.2465C44.5423 18.6356 43.9024 17.0906 42.7633 15.9516C41.6242 14.8125 40.0793 14.1725 38.4683 14.1725H36.4437V42.5177ZM20.2465 14.1725H28.3451V12.1479C28.3451 11.6109 28.1318 11.0959 27.7521 10.7162C27.3724 10.3366 26.8574 10.1232 26.3204 10.1232H22.2711C21.7342 10.1232 21.2192 10.3366 20.8395 10.7162C20.4598 11.0959 20.2465 11.6109 20.2465 12.1479V14.1725Z" fill="#537FE7"/>
<path d="M64.0308 37.2025C61.8123 37.2025 60.0287 36.5826 58.6802 35.3429C57.3534 34.0813 56.69 32.2978 56.69 29.9923H60.8661C60.8879 31.058 61.138 31.9063 61.6165 32.5371C62.095 33.1678 62.8672 33.4832 63.9329 33.4832C64.9335 33.4832 65.6621 33.1896 66.1189 32.6023C66.5756 31.9933 66.804 31.1994 66.804 30.2206V13.9731H70.9801V30.2206C70.9801 32.4609 70.3493 34.1901 69.0878 35.4081C67.848 36.6044 66.1624 37.2025 64.0308 37.2025ZM81.1341 37.2025C79.568 37.2025 78.1543 36.8437 76.8927 36.1259C75.653 35.4081 74.6633 34.4185 73.9238 33.157C73.206 31.8737 72.8471 30.3946 72.8471 28.7199C72.8471 27.0451 73.2169 25.5769 73.9564 24.3154C74.6959 23.0321 75.6856 22.0316 76.9254 21.3138C78.1869 20.5961 79.6007 20.2372 81.1667 20.2372C82.711 20.2372 84.103 20.5961 85.3428 21.3138C86.6043 22.0316 87.594 23.0321 88.3117 24.3154C89.0512 25.5769 89.421 27.0451 89.421 28.7199C89.421 30.3946 89.0512 31.8737 88.3117 33.157C87.594 34.4185 86.6043 35.4081 85.3428 36.1259C84.0813 36.8437 82.6784 37.2025 81.1341 37.2025ZM81.1341 33.5811C82.2216 33.5811 83.1677 33.1787 83.9725 32.3739C84.7773 31.5474 85.1797 30.3294 85.1797 28.7199C85.1797 27.1103 84.7773 25.9032 83.9725 25.0984C83.1677 24.2719 82.2325 23.8586 81.1667 23.8586C80.0574 23.8586 79.1004 24.2719 78.2956 25.0984C77.5126 25.9032 77.1211 27.1103 77.1211 28.7199C77.1211 30.3294 77.5126 31.5474 78.2956 32.3739C79.1004 33.1787 80.0465 33.5811 81.1341 33.5811ZM100.789 37.2025C99.5712 37.2025 98.5055 36.9742 97.5919 36.5174C96.6784 36.0606 95.9389 35.419 95.3734 34.5925L94.9166 36.811H91.1973V13.3205H95.3734V22.9451C95.8954 22.2274 96.5805 21.5966 97.4288 21.0528C98.2988 20.5091 99.419 20.2372 100.789 20.2372C102.312 20.2372 103.671 20.6069 104.867 21.3465C106.064 22.086 107.01 23.0974 107.706 24.3806C108.402 25.6639 108.75 27.1212 108.75 28.7525C108.75 30.3838 108.402 31.8411 107.706 33.1243C107.01 34.3859 106.064 35.3864 104.867 36.1259C103.671 36.8437 102.312 37.2025 100.789 37.2025ZM99.9084 33.5485C101.235 33.5485 102.334 33.1026 103.204 32.2108C104.074 31.319 104.509 30.1663 104.509 28.7525C104.509 27.3387 104.074 26.1751 103.204 25.2615C102.334 24.348 101.235 23.8913 99.9084 23.8913C98.5598 23.8913 97.4506 24.348 96.5805 25.2615C95.7323 26.1533 95.3081 27.3061 95.3081 28.7199C95.3081 30.1336 95.7323 31.2973 96.5805 32.2108C97.4506 33.1026 98.5598 33.5485 99.9084 33.5485ZM118.386 37.2025C116.754 37.2025 115.308 36.8545 114.046 36.1585C112.785 35.4625 111.795 34.4837 111.078 33.2222C110.36 31.9607 110.001 30.5034 110.001 28.8504C110.001 27.1756 110.349 25.6857 111.045 24.3806C111.763 23.0756 112.741 22.0642 113.981 21.3465C115.243 20.6069 116.722 20.2372 118.418 20.2372C120.006 20.2372 121.409 20.5852 122.627 21.2812C123.845 21.9772 124.791 22.9342 125.465 24.1523C126.161 25.3485 126.51 26.6862 126.51 28.1652C126.51 28.4045 126.499 28.6546 126.477 28.9156C126.477 29.1766 126.466 29.4485 126.444 29.7313H114.144C114.231 30.9928 114.666 31.9824 115.449 32.7002C116.254 33.418 117.222 33.7768 118.353 33.7768C119.201 33.7768 119.908 33.592 120.474 33.2222C121.061 32.8307 121.496 32.3304 121.779 31.7214H126.02C125.716 32.7437 125.204 33.679 124.487 34.5272C123.791 35.3537 122.921 36.0063 121.877 36.4848C120.854 36.9633 119.691 37.2025 118.386 37.2025ZM118.418 23.6303C117.396 23.6303 116.493 23.9239 115.71 24.5111C114.927 25.0767 114.427 25.9467 114.21 27.1212H122.268C122.203 26.0554 121.811 25.2072 121.094 24.5764C120.376 23.9456 119.484 23.6303 118.418 23.6303ZM135.927 37.2025C134.296 37.2025 132.849 36.8545 131.588 36.1585C130.326 35.4625 129.337 34.4837 128.619 33.2222C127.901 31.9607 127.542 30.5034 127.542 28.8504C127.542 27.1756 127.89 25.6857 128.586 24.3806C129.304 23.0756 130.283 22.0642 131.523 21.3465C132.784 20.6069 134.263 20.2372 135.96 20.2372C137.548 20.2372 138.95 20.5852 140.168 21.2812C141.386 21.9772 142.333 22.9342 143.007 24.1523C143.703 25.3485 144.051 26.6862 144.051 28.1652C144.051 28.4045 144.04 28.6546 144.018 28.9156C144.018 29.1766 144.007 29.4485 143.986 29.7313H131.686C131.773 30.9928 132.208 31.9824 132.991 32.7002C133.796 33.418 134.763 33.7768 135.894 33.7768C136.743 33.7768 137.45 33.592 138.015 33.2222C138.602 32.8307 139.037 32.3304 139.32 31.7214H143.562C143.257 32.7437 142.746 33.679 142.028 34.5272C141.332 35.3537 140.462 36.0063 139.418 36.4848C138.396 36.9633 137.232 37.2025 135.927 37.2025ZM135.96 23.6303C134.937 23.6303 134.035 23.9239 133.252 24.5111C132.469 25.0767 131.969 25.9467 131.751 27.1212H139.81C139.744 26.0554 139.353 25.2072 138.635 24.5764C137.917 23.9456 137.026 23.6303 135.96 23.6303Z" fill="#181823"/>
</svg>
