<svg width="25" height="25" viewBox="0 0 25 25" fill="none" xmlns="http://www.w3.org/2000/svg">
<path d="M16.25 10.7958C16.25 10.9947 16.171 11.1855 16.0303 11.3261C15.8897 11.4668 15.6989 11.5458 15.5 11.5458H9.5C9.30109 11.5458 9.11032 11.4668 8.96967 11.3261C8.82902 11.1855 8.75 10.9947 8.75 10.7958C8.75 10.5969 8.82902 10.4061 8.96967 10.2655C9.11032 10.1248 9.30109 10.0458 9.5 10.0458H15.5C15.6989 10.0458 15.8897 10.1248 16.0303 10.2655C16.171 10.4061 16.25 10.5969 16.25 10.7958ZM15.5 13.0458H9.5C9.30109 13.0458 9.11032 13.1248 8.96967 13.2655C8.82902 13.4061 8.75 13.5969 8.75 13.7958C8.75 13.9947 8.82902 14.1855 8.96967 14.3261C9.11032 14.4668 9.30109 14.5458 9.5 14.5458H15.5C15.6989 14.5458 15.8897 14.4668 16.0303 14.3261C16.171 14.1855 16.25 13.9947 16.25 13.7958C16.25 13.5969 16.171 13.4061 16.0303 13.2655C15.8897 13.1248 15.6989 13.0458 15.5 13.0458ZM22.25 11.9208C22.2473 14.4064 21.2587 16.7894 19.5011 18.5469C17.7435 20.3045 15.3606 21.2931 12.875 21.2958H4.96906C4.5796 21.2953 4.20622 21.1404 3.93083 20.865C3.65543 20.5896 3.5005 20.2162 3.5 19.8268V11.9208C3.5 9.43441 4.48772 7.04984 6.24587 5.29169C8.00403 3.53353 10.3886 2.54581 12.875 2.54581C15.3614 2.54581 17.746 3.53353 19.5041 5.29169C21.2623 7.04984 22.25 9.43441 22.25 11.9208ZM20.75 11.9208C20.75 9.83223 19.9203 7.8292 18.4435 6.35235C16.9666 4.8755 14.9636 4.04581 12.875 4.04581C10.7864 4.04581 8.78338 4.8755 7.30653 6.35235C5.82968 7.8292 5 9.83223 5 11.9208V19.7958H12.875C14.9629 19.7936 16.9646 18.9632 18.441 17.4868C19.9174 16.0104 20.7478 14.0087 20.75 11.9208Z" fill="#6E6E9B"/>
</svg>
