<svg width="25" height="25" viewBox="0 0 25 25" fill="none" xmlns="http://www.w3.org/2000/svg">
<path d="M17.75 3.29581H7.25C6.85218 3.29581 6.47064 3.45385 6.18934 3.73515C5.90804 4.01646 5.75 4.39799 5.75 4.79581V21.2958C5.75007 21.4297 5.78595 21.561 5.85393 21.6763C5.92191 21.7916 6.0195 21.8867 6.13659 21.9515C6.25367 22.0164 6.38598 22.0487 6.51978 22.0452C6.65358 22.0416 6.784 22.0024 6.8975 21.9314L12.5 18.4299L18.1034 21.9314C18.2169 22.0021 18.3472 22.0412 18.4809 22.0446C18.6146 22.048 18.7467 22.0156 18.8636 21.9508C18.9806 21.886 19.0781 21.7911 19.146 21.6759C19.2139 21.5607 19.2498 21.4295 19.25 21.2958V4.79581C19.25 4.39799 19.092 4.01646 18.8107 3.73515C18.5294 3.45385 18.1478 3.29581 17.75 3.29581ZM17.75 4.79581V15.443L12.8966 12.4102C12.7774 12.3357 12.6396 12.2962 12.4991 12.2962C12.3585 12.2962 12.2208 12.3357 12.1016 12.4102L7.25 15.4421V4.79581H17.75ZM12.8966 16.9102C12.7774 16.8357 12.6396 16.7962 12.4991 16.7962C12.3585 16.7962 12.2208 16.8357 12.1016 16.9102L7.25 19.943V17.2111L12.5 13.9299L17.75 17.2111V19.943L12.8966 16.9102Z" fill="#6E6E9B"/>
</svg>
